<svg xmlns="http://www.w3.org/2000/svg" viewBox="0 0 200 60">
  <defs>
    <linearGradient id="g" x1="0%" y1="0%" x2="100%" y2="100%">
      <stop offset="0%" stop-color="#f9d000"/>
      <stop offset="100%" stop-color="#ffb700"/>
    </linearGradient>
  </defs>
  <rect width="200" height="60" rx="14" fill="#ffe600"/>
  <path d="M24 14L40 14C49.5 14 56 20.6 56 30C56 39.4 49.5 46 40 46H24V14ZM32 22V38H40C44.4 38 48 34.4 48 30C48 25.6 44.4 22 40 22H32Z" fill="#0b5ed7"/>
  <path d="M72 14H84L96 42H94L84 18H82L72 42H70L60 14H72Z" fill="#0b5ed7"/>
  <path d="M118 46L118 14H130L130 34.2L141.7 14H153L153 46H141L141 26.2L129.3 46H118Z" fill="#0b5ed7"/>
  <path d="M159 14H172C178.6 14 184 19.4 184 26C184 32.6 178.6 38 172 38H159V46H150V14H159ZM159 22V30H172C175.3 22 172 22 172 22H159Z" fill="#0b5ed7"/>
</svg>
